# xmcd
#
# Track frame offsets: 
#        150
#        14116
#        29942
#        65268
#        86680
#        102266
#        132052
#        149800
#        170800
#        191200
#        220749
#        238335
#        257497
#        293277
#        310754
#
# Disc length: 4345 seconds
#
# Revision: 0
# Processed by: cddbd v1.4PL0 Copyright (c) Steve Scherf et al.
# Submitted via: ExactAudioCopy v0.90b4
#
DISCID=e810f70f
DTITLE=Various Artist - My Favourites Blues vol.3
DYEAR=2001
DGENRE=Blues
TTITLE0="Sir" Oliver Mally's Blues Distillery - Stop Telling Me
TTITLE1=Doobie Twisters - Rocket Pocket [Thank You, Stevie Ray]
TTITLE2=Joe Bonamassa - If Heartachers Were Nickels
TTITLE3=Merk Selby - You're Gonna Miss My Love
TTITLE4=Samuel Eddy - Sweetest Revenge
TTITLE5=The Hamsters - Foll For Your Stockings
TTITLE6=Colin James - It Ain't Over Yet
TTITLE7=Innes Sibin - Bloodhounds
TTITLE8=Graig Erickson Project - Shine
TTITLE9=Oriental Spas - In My Head
TTITLE10=Arthur Neilson - Walkin Blues
TTITLE11=Mezz - I Just Wanna Make Love To You
TTITLE12=Gov't Mule - Game Face
TTITLE13=Simple Service - Crazy Cow
TTITLE14=Ken Hensley - Free Spirit
EXTD=
EXTT0=
EXTT1=
EXTT2=
EXTT3=
EXTT4=
EXTT5=
EXTT6=
EXTT7=
EXTT8=
EXTT9=
EXTT10=
EXTT11=
EXTT12=
EXTT13=
EXTT14=
PLAYORDER=
